<?xml version="1.0" encoding="UTF-8"?>
<svg width="159px" height="76px" viewBox="0 0 159 76" version="1.1" xmlns="http://www.w3.org/2000/svg" xmlns:xlink="http://www.w3.org/1999/xlink">
    <!-- Generator: Sketch 53.2 (72643) - https://sketchapp.com -->
    <title>Group 8</title>
    <desc>Created with Sketch.</desc>
    <g id="Welcome" stroke="none" stroke-width="1" fill="none" fill-rule="evenodd">
        <g id="Mobile-Portrait" transform="translate(-81.000000, -17.000000)" fill="#FFFFFF">
            <g id="Group-8" transform="translate(81.000000, 17.000000)">
                <polyline id="Fill-1" points="14.4823 49.9238 9.2626 74.6009 0.7087 74.6009 17.4538 6.7724 24.8901 8.6475 17.7103 37.122"></polyline>
                <path d="M24.8901,8.7128 C24.8901,8.7128 31.2347,22.8006 37.8905,38.6084 C44.9712,55.425 49.7411,69.0162 50.6346,74.6009 L44.0322,74.6009 C43.1335,69.789 38.7057,57.6986 35.5865,48.8151 C32.2337,39.2659 22.6985,17.1956 22.6985,17.1956 L24.8901,8.7128 Z" id="Fill-2"></path>
                <path d="M35.5959,46.7913 C35.5135,47.1042 35.4342,47.4121 35.3582,47.7149 C34.2963,51.9456 31.4412,74.6009 31.4412,74.6009 L20.5385,74.6009 C21.5499,68.8682 29.4816,36.3578 32.1204,28.1184 C33.5733,23.6788 35.0545,19.4521 36.5642,15.4383 C38.0739,11.4244 39.3046,8.2717 40.2563,5.9802 C41.2079,3.6887 41.7104,2.4644 41.7636,2.3073 L50.6346,0.2577 C47.9248,5.8129 45.2899,12.5195 42.7299,20.3776 C40.1699,28.2357 38.3792,34.2297 37.3578,38.3596" id="Fill-3"></path>
                <path d="M53.0788,17.1534 L67.4601,16.376 L67.4601,69.1593 C67.4601,69.8848 67.7451,70.4808 68.3152,70.9472 C68.8852,71.4137 69.6108,71.6469 70.4918,71.6469 L74.3009,71.6469 L74.3009,74.6009 L53.7007,74.6009 L53.7007,71.6469 L57.3543,71.6469 C59.79,71.6469 61.0079,70.5586 61.0079,68.3819 L61.0079,24.1497 C61.0079,22.8541 60.5933,21.8435 59.7641,21.1179 C58.9349,20.3924 57.7948,20.0296 56.3437,20.0296 L53.0788,20.0296 L53.0788,17.1534 Z" id="Fill-4"></path>
                <path d="M80.5237,16.376 C81.7157,16.376 82.7522,16.8165 83.6332,17.6975 C84.5142,18.5785 84.9547,19.6409 84.9547,20.8847 C84.9547,22.0767 84.5402,23.0873 83.711,23.9165 C82.8818,24.7457 81.8453,25.1603 80.6015,25.1603 C79.3577,25.1603 78.3212,24.7457 77.492,23.9165 C76.6628,23.0873 76.2482,22.0767 76.2482,20.8847 C76.2482,19.6928 76.6758,18.6433 77.5309,17.7364 C78.386,16.8295 79.3836,16.376 80.5237,16.376 Z M70.4957,41.0963 L70.4957,38.1423 L84.9547,37.5204 L84.9547,69.0038 C84.9547,70.7659 85.9135,71.6469 87.831,71.6469 L91.9511,71.6469 L91.9511,74.6009 L71.2731,74.6009 L71.2731,71.6469 L75.0822,71.6469 C77.3625,71.6469 78.5026,70.5586 78.5026,68.3819 L78.5026,45.4496 C78.5026,42.5474 76.8442,41.0963 73.5274,41.0963 L70.4957,41.0963 Z" id="Fill-5"></path>
                <path d="M116.131,63.7955 L118.619,64.4951 C117.427,68.071 115.691,70.8306 113.41,72.7741 C111.13,74.7175 108.383,75.6892 105.17,75.6892 C100.143,75.6892 96.023,74.0308 92.8101,70.714 C89.5969,67.3973 87.9904,62.9144 87.9904,57.2656 C87.9904,51.2021 89.6617,46.3176 93.0044,42.6122 C96.347,38.9067 100.61,37.054 105.792,37.054 C109.316,37.054 112.296,38.0646 114.732,40.0857 C117.012,41.9514 118.152,44.128 118.152,46.6156 C118.152,48.0149 117.712,49.2068 116.831,50.1915 C115.95,51.1762 114.913,51.6685 113.721,51.6685 C112.633,51.6685 111.674,51.2798 110.845,50.5025 C110.016,49.7251 109.601,48.7145 109.601,47.4707 C109.601,46.6415 109.86,45.8123 110.379,44.9831 C110.586,44.6722 110.949,44.1539 111.467,43.4284 L111.545,43.1175 C111.545,42.2883 111.026,41.5368 109.99,40.8631 C108.953,40.1894 107.606,39.8525 105.948,39.8525 C102.527,39.8525 99.884,41.3036 98.018,44.2058 C96.153,47.1079 95.22,51.228 95.22,56.5659 C95.22,61.4893 96.205,65.3243 98.174,68.071 C100.143,70.8177 102.786,72.191 106.103,72.191 C110.612,72.191 113.954,69.3925 116.131,63.7955 Z" id="Fill-6"></path>
                <path d="M114.891,20.0296 L114.891,17.1534 L128.806,16.376 L128.806,56.1772 L140.7,45.8382 C141.166,45.4237 141.555,44.9961 141.866,44.5556 C142.177,44.1151 142.332,43.6875 142.332,43.2729 C142.332,41.7182 140.389,40.9408 136.502,40.9408 L136.502,38.1423 L155.859,38.1423 L155.859,40.9408 C152.231,40.9408 149.303,41.9514 147.074,43.9726 L138.679,51.3576 L152.205,70.0144 C153.086,71.1027 154.537,71.6469 156.558,71.6469 L158.579,71.6469 L158.579,74.6009 L138.679,74.6009 L138.679,71.6469 L140.7,71.6469 C141.944,71.6469 142.876,71.5562 143.498,71.3748 C144.12,71.1934 144.431,70.8436 144.431,70.3253 C144.431,69.8589 144.302,69.4962 144.043,69.237 L134.17,55.3999 L128.806,60.1418 L128.806,69.237 C128.806,70.8436 130.024,71.6469 132.46,71.6469 L135.025,71.6469 L135.025,74.6009 L115.435,74.6009 L115.435,71.6469 L118.545,71.6469 C121.084,71.6469 122.354,70.6363 122.354,68.6151 L122.354,23.761 C122.354,21.2734 120.54,20.0296 116.912,20.0296 L114.891,20.0296 Z" id="Fill-7"></path>
            </g>
        </g>
    </g>
</svg>